<?xml version="1.0" encoding="UTF-8" standalone="no"?>
<svg width="140px" height="50px" viewBox="0 0 140 50" version="1.1" xmlns="http://www.w3.org/2000/svg" xmlns:xlink="http://www.w3.org/1999/xlink">
    <!-- Generator: Sketch 41.2 (35397) - http://www.bohemiancoding.com/sketch -->
    <title>logo bai</title>
    <desc>Created with Sketch.</desc>
    <defs></defs>
    <g id="Page-1" stroke="none" stroke-width="1" fill="none" fill-rule="evenodd">
        <g id="logo-bai" fill="#FFFFFF">
            <g id="logoBAI">
                <path d="M11.8999899,46.1288588 C4.76601812,41.7977787 0,33.9554709 0,25 C0,11.3585667 11.0585667,0.3 24.7,0.3 C38.3414333,0.3 49.4,11.3585667 49.4,25 C49.4,38.6414333 38.3414333,49.7 24.7,49.7 C23.1179438,49.7 21.5706274,49.5512618 20.0712715,49.2670062 C19.6686593,48.7877449 15.4,43.3578572 15.4,37 C15.4,36.8 15.5,36.8 15.6,36.8 C18.3,38.4 25,40.4 28,32.8 C28,32.8 28,36.2 31.5,37.8 C34.9,39.4 38.4,37.4 39.7,33.8 L39.7,33.5 C39.6,33.4 39.5,33.1 39.4,33 C39.4,33 39.3,32.8 39.1,32.9 C38.5,33.4 36,35.4 36,33 L36,13 C36,12.9 36,12.7 35.9,12.6 C35.8,12.5 35.7,12.5 35.5,12.5 L28.4,12.5 C28.3,12.5 28.1,12.5 28,12.7 C27.9,12.8 27.8,12.9 27.8,13.1 L27.8,27.7 C27.8,27.7 27.6,33.2 22.7,33.7 C20.4,33.9 20,31.8 20,31 L20,13 C20,12.9 20,12.7 19.9,12.6 C19.8,12.5 19.7,12.5 19.5,12.5 L12.4,12.5 C12.3,12.5 12.1,12.5 12,12.6 C11.9,12.7 11.9,12.8 11.9,13 L11.9,30.8 L11.9,30.9 L11.9,46.1288649 Z" id="Combined-Shape"></path>
                <path d="M63.3,36.2 C63,37 62.7,37.8 62.5,38.6 L62.5,38.6 C62.3,37.7 62,37 61.7,36.2 L60.1,31.8 L57.7,31.8 L57.7,41.1 L59.4,41.1 L59.4,36.4 C59.4,35.7 59.4,34.9 59.3,34 L59.4,34 C59.5,34.3 59.6,34.6 59.7,34.9 C59.8,35.2 59.9,35.6 60,35.9 L61.9,41.2 L63,41.2 L64.9,35.9 C65,35.6 65.1,35.3 65.2,34.9 C65.3,34.6 65.4,34.3 65.5,34 L65.6,34 C65.5,34.9 65.5,35.7 65.5,36.4 L65.5,41.1 L67.2,41.1 L67.2,31.8 L65,31.8 L63.3,36.2 Z" id="XMLID_29_"></path>
                <path d="M75.7,37.1 C75.7,37.8 75.6,38.3 75.5,38.6 C75.3,39 75.1,39.3 74.7,39.5 C74.4,39.7 74,39.8 73.5,39.8 C73,39.8 72.6,39.7 72.3,39.5 C72,39.3 71.7,39 71.5,38.6 C71.3,38.2 71.3,37.7 71.3,37.1 L71.3,31.8 L69.6,31.8 L69.6,37.3 C69.6,37.7 69.6,38 69.7,38.4 C69.7,38.7 69.8,39 69.9,39.3 C70,39.6 70.2,39.9 70.4,40.2 C70.6,40.5 70.9,40.7 71.2,40.9 C71.5,41.1 71.8,41.2 72.2,41.3 C72.6,41.4 73,41.4 73.5,41.4 C74,41.4 74.4,41.4 74.8,41.3 C75.2,41.2 75.5,41.1 75.9,40.9 C76.2,40.7 76.5,40.5 76.7,40.2 C76.9,39.9 77.1,39.7 77.2,39.3 C77.3,39 77.4,38.8 77.4,38.4 C77.4,38.1 77.5,37.7 77.5,37.3 L77.5,31.8 L75.8,31.8 L75.8,37.1 L75.7,37.1 Z" id="XMLID_28_"></path>
                <path d="M84.1,39.8 C83.6,39.8 83.2,39.7 82.8,39.6 C82.4,39.5 82.1,39.2 81.8,39 C81.5,38.7 81.3,38.4 81.2,38 C81,37.5 81,37 81,36.5 C81,35.9 81.1,35.5 81.2,35 C81.4,34.6 81.6,34.2 81.9,33.9 C82.2,33.6 82.5,33.4 82.9,33.2 C83.3,33 83.7,33 84.2,33 C84.5,33 84.8,33 85.1,33.1 C85.4,33.1 85.8,33.2 86.1,33.3 L86.1,31.8 C85.8,31.7 85.5,31.6 85.1,31.6 C84.7,31.5 84.4,31.5 84,31.5 C83.2,31.5 82.5,31.6 81.9,31.9 C81.3,32.2 80.8,32.5 80.4,33 C80,33.4 79.7,34 79.5,34.6 C79.3,35.2 79.2,35.9 79.2,36.6 C79.2,37.3 79.3,37.9 79.5,38.5 C79.7,39.1 80,39.6 80.4,40 C80.8,40.4 81.3,40.7 81.9,41 C82.5,41.2 83.2,41.3 84,41.3 C84.4,41.3 84.8,41.3 85.2,41.2 C85.6,41.1 85.9,41.1 86.3,41 L86.3,39.5 C86,39.6 85.6,39.7 85.3,39.7 C84.8,39.8 84.5,39.8 84.1,39.8 Z" id="XMLID_27_"></path>
                <polygon id="XMLID_26_" points="88 41.1 89.7 41.1 89.7 37 93.3 37 93.3 35.6 89.7 35.6 89.7 33.2 93.9 33.2 93.9 31.7 88 31.7"></polygon>
                <path d="M99.9,39.8 C99.4,39.8 99,39.7 98.6,39.6 C98.2,39.5 97.9,39.2 97.6,39 C97.3,38.7 97.1,38.4 97,38 C96.9,37.6 96.8,37.1 96.8,36.6 C96.8,36 96.9,35.6 97,35.1 C97.2,34.7 97.4,34.3 97.7,34 C98,33.7 98.3,33.5 98.7,33.3 C99.1,33.1 99.5,33.1 100,33.1 C100.3,33.1 100.6,33.1 100.9,33.2 C101.2,33.2 101.6,33.3 101.9,33.4 L101.9,31.9 C101.6,31.8 101.3,31.7 100.9,31.7 C100.5,31.6 100.2,31.6 99.8,31.6 C99,31.6 98.3,31.7 97.7,32 C97.1,32.3 96.6,32.6 96.2,33.1 C95.8,33.5 95.5,34.1 95.3,34.7 C95.1,35.3 95,36 95,36.7 C95,37.4 95.1,38 95.3,38.6 C95.5,39.2 95.8,39.7 96.2,40.1 C96.6,40.5 97.1,40.8 97.7,41.1 C98.3,41.3 99,41.4 99.8,41.4 C100.2,41.4 100.6,41.4 101,41.3 C101.4,41.2 101.7,41.2 102.1,41.1 L102.1,39.6 C101.8,39.7 101.4,39.8 101.1,39.8 C100.6,39.8 100.3,39.8 99.9,39.8 Z" id="XMLID_25_"></path>
                <rect id="XMLID_24_" x="104.3" y="39.2" width="1.9" height="1.9"></rect>
                <path d="M112.5,39.8 C112,39.8 111.6,39.7 111.2,39.6 C110.8,39.5 110.5,39.2 110.2,39 C109.9,38.7 109.7,38.4 109.6,38 C109.5,37.6 109.4,37.1 109.4,36.6 C109.4,36 109.5,35.6 109.6,35.1 C109.8,34.7 110,34.3 110.3,34 C110.6,33.7 110.9,33.5 111.3,33.3 C111.7,33.1 112.1,33.1 112.6,33.1 C112.9,33.1 113.2,33.1 113.5,33.2 C113.8,33.2 114.2,33.3 114.5,33.4 L114.5,31.9 C114.2,31.8 113.9,31.7 113.5,31.7 C113.1,31.6 112.8,31.6 112.4,31.6 C111.6,31.6 110.9,31.7 110.3,32 C109.7,32.3 109.2,32.6 108.8,33.1 C108.4,33.5 108.1,34.1 107.9,34.7 C107.7,35.3 107.6,36 107.6,36.7 C107.6,37.4 107.7,38 107.9,38.6 C108.1,39.2 108.4,39.7 108.8,40.1 C109.2,40.5 109.7,40.8 110.3,41.1 C110.9,41.3 111.6,41.4 112.4,41.4 C112.8,41.4 113.2,41.4 113.6,41.3 C114,41.2 114.3,41.2 114.7,41.1 L114.7,39.6 C114.4,39.7 114,39.8 113.7,39.8 C113.2,39.8 112.8,39.8 112.5,39.8 Z" id="XMLID_23_"></path>
                <path d="M123.8,32.9 C123.4,32.5 122.9,32.1 122.4,31.9 C121.8,31.7 121.2,31.5 120.5,31.5 C119.8,31.5 119.1,31.6 118.6,31.9 C118,32.1 117.6,32.5 117.2,32.9 C116.8,33.3 116.5,33.8 116.3,34.4 C116.1,35 116,35.6 116,36.4 C116,37.1 116.1,37.8 116.3,38.4 C116.5,39 116.8,39.5 117.2,39.9 C117.6,40.3 118.1,40.7 118.6,40.9 C119.2,41.1 119.8,41.3 120.5,41.3 C121.2,41.3 121.9,41.2 122.4,40.9 C123,40.7 123.4,40.3 123.8,39.9 C124.2,39.5 124.5,39 124.7,38.4 C124.9,37.8 125,37.2 125,36.4 C125,35.7 124.9,35 124.7,34.4 C124.5,33.9 124.2,33.4 123.8,32.9 Z M123,37.9 C122.9,38.3 122.7,38.7 122.4,39 C122.2,39.3 121.9,39.5 121.5,39.6 C121.2,39.7 120.8,39.8 120.4,39.8 C120,39.8 119.6,39.7 119.3,39.6 C119,39.5 118.7,39.2 118.4,39 C118.2,38.7 118,38.4 117.8,37.9 C117.7,37.5 117.6,37 117.6,36.4 C117.6,35.8 117.7,35.3 117.8,34.9 C117.9,34.5 118.1,34.1 118.4,33.8 C118.6,33.5 118.9,33.3 119.3,33.2 C119.6,33.1 120,33 120.4,33 C120.8,33 121.2,33.1 121.5,33.2 C121.8,33.3 122.1,33.6 122.4,33.8 C122.6,34.1 122.8,34.4 123,34.9 C123.1,35.3 123.2,35.8 123.2,36.4 C123.2,37 123.2,37.5 123,37.9 Z" id="XMLID_58_"></path>
                <path d="M132.4,36.2 C132.1,37 131.8,37.8 131.6,38.6 L131.6,38.6 C131.4,37.7 131.1,37 130.8,36.2 L129.2,31.8 L126.8,31.8 L126.8,41.1 L128.5,41.1 L128.5,36.4 C128.5,35.7 128.5,34.9 128.4,34 L128.5,34 C128.6,34.3 128.7,34.6 128.8,34.9 C128.9,35.2 129,35.6 129.1,35.9 L131,41.2 L132.1,41.2 L134,35.9 C134.1,35.6 134.2,35.3 134.3,34.9 C134.4,34.6 134.5,34.3 134.6,34 L134.7,34 C134.6,34.9 134.6,35.7 134.6,36.4 L134.6,41.1 L136.3,41.1 L136.3,31.8 L134,31.8 L132.4,36.2 Z" id="XMLID_20_"></path>
                <path d="M59.8,21.3 L59.8,25.8 C59.8,26.4 59.6,26.6 58.9,26.6 L58.1,26.6 L58.1,27.9 L59.7,27.9 C61.3,27.9 62,27.2 62,25.7 L62,20.6 C62.5,20.4 63,20.2 63.6,20 L63.6,18.4 C63,18.6 62.5,18.8 62,18.9 L62,15 L63.6,15 L63.6,13.5 L62,13.5 L62,10.8 L59.7,10.8 L59.7,13.5 L57.8,13.5 L57.8,15 L59.7,15 L59.7,19.4 C59.5,19.4 59.2,19.5 58.8,19.6 C58.3,19.6 57.9,19.7 57.6,19.8 L57.6,21.8 C57.8,21.7 58.1,21.7 58.5,21.6 C59.2,21.4 59.5,21.4 59.8,21.3 Z" id="XMLID_19_"></path>
                <path d="M65,20.4 C64.8,20.4 64.6,20.5 64.5,20.6 C64.4,20.7 64.3,20.9 64.3,21.1 L64.3,27.1 C64.3,27.3 64.4,27.5 64.5,27.6 C64.6,27.7 64.8,27.8 65,27.8 L74.5,27.8 C74.7,27.8 74.9,27.7 75,27.6 C75.1,27.5 75.2,27.3 75.2,27.1 L75.2,21.1 C75.2,20.9 75.1,20.7 75,20.6 C74.9,20.5 74.7,20.4 74.5,20.4 L65,20.4 Z M72.8,26 C72.8,26.1 72.8,26.2 72.7,26.3 C72.6,26.4 72.5,26.4 72.4,26.4 L66.8,26.4 C66.7,26.4 66.6,26.4 66.5,26.3 C66.4,26.2 66.4,26.1 66.4,26 L66.4,22.3 C66.4,22.2 66.4,22.1 66.5,22 C66.6,21.9 66.7,21.9 66.8,21.9 L72.4,21.9 C72.5,21.9 72.6,21.9 72.7,22 C72.8,22.1 72.8,22.2 72.8,22.3 L72.8,26 Z" id="XMLID_53_"></path>
                <path d="M83.3,28 L85.3,28 L85.3,24.8 C85.9,24.6 86.5,24.3 87,24 L87,22.4 C86.5,22.7 85.9,23 85.3,23.2 L85.3,13.2 L86.2,13.2 L86.2,11.6 L78.5,11.6 L78.5,13.2 L79.4,13.2 L79.4,24.3 L78.5,24.3 L78.5,26.3 C80.2,26.2 81.8,25.9 83.4,25.5 L83.4,28 L83.3,28 Z M81.3,13.3 L83.3,13.3 L83.3,15.8 L81.3,15.8 L81.3,13.3 Z M81.3,17.3 L83.3,17.3 L83.3,19.8 L81.3,19.8 L81.3,17.3 Z M81.3,24.2 L81.3,21.3 L83.3,21.3 L83.3,23.9 C82.7,24 82,24.1 81.3,24.2 Z" id="XMLID_48_"></path>
                <rect id="XMLID_12_" x="118.8" y="11" width="9.3" height="1.5"></rect>
                <path d="M128.1,25.8 L128.1,18.7 L118.8,18.7 L118.8,27.9 L120.7,27.9 L120.7,20 L126.3,20 L126.3,25.9 C126.3,26.5 126,26.6 125.4,26.7 L125,26.7 L125,27.8 L125.9,27.8 C127.4,27.7 128.2,27.1 128.1,25.8 Z" id="XMLID_11_"></path>
                <polygon id="XMLID_10_" points="121.2 24.1 122.6 24.1 122.6 27.8 124.3 27.8 124.3 24.1 125.7 24.1 125.7 22.9 125.2 22.9 125.5 20.9 124.2 20.9 123.9 22.9 123 22.9 122.8 20.8 121.4 20.8 121.7 22.9 121.2 22.9"></polygon>
                <path d="M120.1,13.5 C120,13.5 119.8,13.5 119.7,13.6 C119.6,13.7 119.6,13.8 119.6,14 L119.6,17.2 C119.6,17.3 119.6,17.5 119.7,17.6 C119.8,17.7 119.9,17.7 120.1,17.7 L126.8,17.7 C126.9,17.7 127.1,17.7 127.2,17.6 C127.3,17.5 127.3,17.4 127.3,17.2 L127.3,14 C127.3,13.9 127.3,13.7 127.2,13.6 C127.1,13.5 127,13.5 126.8,13.5 L120.1,13.5 Z M125.3,16.3 C125.3,16.4 125.3,16.4 125.2,16.5 C125.2,16.5 125.1,16.6 125,16.6 L121.8,16.6 C121.7,16.6 121.7,16.6 121.6,16.5 C121.6,16.5 121.5,16.4 121.5,16.3 L121.5,14.9 C121.5,14.8 121.5,14.8 121.6,14.7 C121.6,14.7 121.7,14.6 121.8,14.6 L125,14.6 C125.1,14.6 125.1,14.6 125.2,14.7 C125.3,14.7 125.3,14.8 125.3,14.9 L125.3,16.3 Z" id="XMLID_42_"></path>
                <path d="M135.2,27.8 L136.7,27.8 L135.6,23.7 L134.1,23.7 L134.5,25.2 L133.2,25.3 L133.2,22.8 L135.2,22.8 C135.4,22.8 135.6,22.7 135.7,22.6 C135.8,22.5 135.9,22.3 135.9,22.1 L135.9,14.2 C135.9,14 135.8,13.8 135.7,13.7 C135.6,13.6 135.4,13.5 135.2,13.5 L133.2,13.5 L133.2,10.6 L131.4,10.6 L131.4,13.5 L129.4,13.5 C129.2,13.5 129,13.6 128.9,13.7 C128.8,13.8 128.7,14 128.7,14.2 L128.7,22.1 C128.7,22.3 128.8,22.5 128.9,22.6 C129,22.7 129.2,22.8 129.4,22.8 L131.4,22.8 L131.4,25.4 L128.5,25.6 L128.5,27.2 L135,26.8 L135.2,27.8 Z M133.2,14.7 L134.3,14.7 L134.3,21.7 L133.2,21.7 L133.2,14.7 Z M130.4,21.6 L130.4,14.6 L131.5,14.6 L131.5,21.6 L130.4,21.6 Z" id="XMLID_38_"></path>
                <path d="M64.2,18.4 L64.9,19.5 C67.5,18.3 69.2,16 69.1,13 L72.8,13 L72.8,16.4 C72.8,17.2 72.4,17.6 71.6,17.6 L70.4,17.6 L70.4,19.2 L72.4,19.2 C74.3,19.2 75.3,18.3 75.2,16.4 L75.2,12.2 C75.2,11.8 74.9,11.5 74.5,11.5 L74.5,11.5 L64.3,11.5 L64.3,13 L66.7,13 C66.8,15.5 66,17.4 64.2,18.4 Z" id="XMLID_4_"></path>
                <path d="M91.2,23.2 C92.1,25 93.7,26.8 96.1,28 L96.8,26.9 C94.5,25.5 92.7,22.6 92.5,20.1 L96.6,20.1 L96.6,18.5 L92.5,18.5 L92.5,15 L96.1,15 L96.1,13.4 L94.6,13.4 L95.1,11.1 L93,11.1 L92.5,13.4 L90.2,13.4 L89.7,11.1 L87.6,11.1 L88.1,13.4 L86.7,13.4 L86.7,15 L90,15 L90,18.4 L86.2,18.4 L86.2,20 L89.9,20 C89.7,22.4 88.5,24.9 85.7,27 L86.3,27.9 C88.6,26.8 90.2,25 91.2,23.2 Z" id="XMLID_3_"></path>
                <path d="M101.9,16.6 L101.9,17.8 L106.3,17.8 L106.3,20.1 L99.9,20.1 L99.9,21.7 L106.3,21.7 L106.3,26.2 L104.3,26.2 L103.7,22.5 L101.6,22.5 L102.2,26.2 L98.9,26.2 L98.9,27.8 L116.3,27.8 L116.3,26.2 L112.9,26.2 L113.5,22.5 L111.4,22.5 L110.8,26.2 L108.8,26.2 L108.8,21.7 L115.2,21.7 L115.2,20.1 L108.8,20.1 L108.8,17.8 L113.3,17.8 L113.3,16.6 C114.2,17 115.2,17.4 116.4,17.7 L117.1,16.6 C113.2,15.1 110.9,13 109.1,10.8 L106,10.8 C104.3,13.2 101.9,15.1 98,16.6 L98.7,17.7 C99.9,17.4 100.9,17 101.9,16.6 Z M107.5,12.9 C108.9,14.3 110.4,15.3 112.1,16.2 L103,16.2 C104.4,15.4 105.9,14.3 107.5,12.9 Z" id="XMLID_33_"></path>
            </g>
        </g>
    </g>
</svg>